<?xml version="1.0" encoding="iso-8859-1"?>
<!-- Uploaded to: SVG Repo, www.svgrepo.com, Generator: SVG Repo Mixer Tools -->
<svg height="800px" width="800px" version="1.1" id="Layer_1" xmlns="http://www.w3.org/2000/svg" xmlns:xlink="http://www.w3.org/1999/xlink" 
	 viewBox="0 0 512 512" xml:space="preserve">
<polygon style="fill:#CEE8FA;" points="304.644,147.006 304.644,148.216 346.051,148.216 275.745,234.907 205.438,148.216 
	244.843,148.216 244.843,147.006 139.577,147.006 139.577,87.576 13.819,87.576 13.819,463.466 118.157,275.521 393.843,275.521 
	393.843,147.006 "/>
<path style="fill:#2D527C;" d="M510.09,268.51c-2.483-4.219-7.013-6.809-11.91-6.809h-90.518V147.006
	c0-7.633-6.188-13.82-13.819-13.82h-75.38v-28.674c0-7.633-6.188-13.819-13.82-13.819c-7.631,0-13.819,6.187-13.819,13.819v42.494
	v1.209c0,7.633,6.188,13.82,13.819,13.82h12.407l-41.306,50.932l-41.306-50.932h10.405c7.633,0,13.82-6.187,13.82-13.82v-1.209
	V62.355h45.98c7.631,0,13.819-6.187,13.819-13.819s-6.188-13.819-13.819-13.819h-59.801c-7.632,0-13.819,6.187-13.819,13.819v84.65
	h-77.626V87.574c0-7.633-6.187-13.819-13.82-13.819H13.819C6.187,73.755,0,79.942,0,87.574v375.89c0,0.036,0.004,0.072,0.004,0.108
	c0,0.083,0.008,0.164,0.01,0.246c0.012,0.467,0.048,0.929,0.106,1.385c0.014,0.111,0.025,0.221,0.041,0.332
	c0.079,0.521,0.184,1.032,0.321,1.534c0.022,0.084,0.051,0.166,0.075,0.25c0.135,0.468,0.296,0.926,0.478,1.374
	c0.03,0.073,0.055,0.148,0.087,0.221c0.21,0.488,0.451,0.959,0.713,1.418c0.026,0.047,0.044,0.097,0.072,0.142
	c0.032,0.055,0.073,0.102,0.106,0.156c0.276,0.456,0.572,0.9,0.9,1.321c0.029,0.039,0.062,0.072,0.093,0.111
	c0.308,0.387,0.64,0.755,0.988,1.107c0.077,0.079,0.153,0.159,0.234,0.235c0.373,0.359,0.764,0.699,1.177,1.017
	c0.073,0.057,0.149,0.108,0.222,0.162c0.387,0.286,0.789,0.551,1.208,0.797c0.061,0.036,0.119,0.075,0.18,0.109
	c0.453,0.257,0.926,0.485,1.411,0.691c0.105,0.044,0.211,0.086,0.318,0.127c0.439,0.174,0.89,0.329,1.353,0.457
	c0.065,0.018,0.127,0.041,0.191,0.058c0.022,0.006,0.043,0.014,0.066,0.019c0.323,0.084,0.648,0.127,0.973,0.187
	c0.239,0.044,0.473,0.106,0.714,0.137c0.594,0.077,1.188,0.119,1.78,0.119c0.007,0,0.014-0.001,0.021-0.001h380.002
	c7.631,0,13.819-6.187,13.819-13.82c0-7.633-6.188-13.819-13.819-13.819H37.297l88.993-160.306h267.551h80.859l-62.254,112.14
	c-3.705,6.673-1.298,15.085,5.376,18.79c6.669,3.704,15.085,1.299,18.79-5.376l73.65-132.667
	C512.64,277.948,512.574,272.729,510.09,268.51z M118.157,261.7c-5.021,0-9.646,2.722-12.082,7.112L27.639,410.099V101.394h98.118
	v45.611c0,7.633,6.187,13.82,13.819,13.82h58.295l67.139,82.786c2.623,3.235,6.567,5.115,10.734,5.115
	c4.167,0,8.109-1.879,10.734-5.115l67.139-82.786h26.406V261.7L118.157,261.7L118.157,261.7z"/>
</svg>